<svg width="32" height="32" viewBox="0 0 36 36" fill="none" xmlns="http://www.w3.org/2000/svg">
  <rect x="1.5" y="1.5" width="33" height="33" rx="6" stroke="#f97316" stroke-width="3" fill="white"/>
  <g transform="translate(6, 6)">
    <path d="M12 2C9.5 2 7.2 3.1 5.5 5C3.5 7.2 3 10 4 12.5C2 11 0.5 8.5 0.5 5.5C0.5 2.5 3 0 6.5 0C8.5 0 10.3 0.7 11.8 1.8C11.2 1.5 10.5 1.5 9.8 1.8C10.5 1.5 11.2 1.7 12 2Z" fill="#f97316"/>
    <path d="M22 12C22 14.5 20.9 16.8 19 18.5C16.8 20.5 14 21 11.5 20C13 22 15.5 23.5 18.5 23.5C21.5 23.5 24 21 24 17.5C24 15.5 23.3 13.7 22.2 12.2C22.5 12.8 22.5 13.5 22.2 14.2C22.5 13.5 22.3 12.8 22 12Z" fill="#f97316"/>
    <path d="M12 22C14.5 22 16.8 20.9 18.5 19C20.5 16.8 21 14 20 11.5C22 13 23.5 15.5 23.5 18.5C23.5 21.5 21 24 17.5 24C15.5 24 13.7 23.3 12.2 22.2C12.8 22.5 13.5 22.5 14.2 22.2C13.5 22.5 12.8 22.3 12 22Z" fill="#f97316"/>
    <path d="M2 12C2 9.5 3.1 7.2 5 5.5C7.2 3.5 10 3 12.5 4C11 2 8.5 0.5 5.5 0.5C2.5 0.5 0 3 0 6.5C0 8.5 0.7 10.3 1.8 11.8C1.5 11.2 1.5 10.5 1.8 9.8C1.5 10.5 1.7 11.2 2 12Z" fill="#f97316"/>
  </g>
</svg>
